<mxfile host="app.diagrams.net" modified="2023-01-24T04:31:21.927Z" agent="5.0 (Windows NT 10.0; Win64; x64) AppleWebKit/537.36 (KHTML, like Gecko) Chrome/109.0.0.0 Safari/537.36" version="20.8.5" etag="9faoDivoc5Kr-5DzcbDU" type="github">
  <diagram id="WJZ4oMaHgGuHUTIhxIZY" name="Page-1">
    <mxGraphModel dx="794" dy="462" grid="1" gridSize="10" guides="1" tooltips="1" connect="1" arrows="1" fold="1" page="1" pageScale="1" pageWidth="850" pageHeight="1100" math="0" shadow="0">
      <root>
        <mxCell id="0" />
        <mxCell id="1" parent="0" />
        <mxCell id="uavgOarLLKWaWZCZ6UA3-4" value="" style="edgeStyle=orthogonalEdgeStyle;rounded=0;orthogonalLoop=1;jettySize=auto;html=1;" edge="1" parent="1" source="uavgOarLLKWaWZCZ6UA3-1" target="uavgOarLLKWaWZCZ6UA3-2">
          <mxGeometry relative="1" as="geometry" />
        </mxCell>
        <mxCell id="uavgOarLLKWaWZCZ6UA3-1" value="Start" style="ellipse;whiteSpace=wrap;html=1;" vertex="1" parent="1">
          <mxGeometry x="350" y="50" width="120" height="40" as="geometry" />
        </mxCell>
        <mxCell id="uavgOarLLKWaWZCZ6UA3-6" value="" style="edgeStyle=orthogonalEdgeStyle;rounded=0;orthogonalLoop=1;jettySize=auto;html=1;" edge="1" parent="1" source="uavgOarLLKWaWZCZ6UA3-2" target="uavgOarLLKWaWZCZ6UA3-5">
          <mxGeometry relative="1" as="geometry" />
        </mxCell>
        <mxCell id="uavgOarLLKWaWZCZ6UA3-2" value="Create Remuneration Employees" style="rounded=0;whiteSpace=wrap;html=1;" vertex="1" parent="1">
          <mxGeometry x="350" y="140" width="120" height="60" as="geometry" />
        </mxCell>
        <mxCell id="uavgOarLLKWaWZCZ6UA3-10" value="" style="edgeStyle=orthogonalEdgeStyle;rounded=0;orthogonalLoop=1;jettySize=auto;html=1;" edge="1" parent="1" source="uavgOarLLKWaWZCZ6UA3-5" target="uavgOarLLKWaWZCZ6UA3-9">
          <mxGeometry relative="1" as="geometry" />
        </mxCell>
        <mxCell id="uavgOarLLKWaWZCZ6UA3-16" value="" style="edgeStyle=orthogonalEdgeStyle;rounded=0;orthogonalLoop=1;jettySize=auto;html=1;" edge="1" parent="1" source="uavgOarLLKWaWZCZ6UA3-5" target="uavgOarLLKWaWZCZ6UA3-9">
          <mxGeometry relative="1" as="geometry" />
        </mxCell>
        <mxCell id="uavgOarLLKWaWZCZ6UA3-5" value="Compute" style="rounded=0;whiteSpace=wrap;html=1;" vertex="1" parent="1">
          <mxGeometry x="210" y="270" width="120" height="60" as="geometry" />
        </mxCell>
        <mxCell id="uavgOarLLKWaWZCZ6UA3-7" value="" style="edgeStyle=orthogonalEdgeStyle;rounded=0;orthogonalLoop=1;jettySize=auto;html=1;exitX=1;exitY=0.5;exitDx=0;exitDy=0;" edge="1" parent="1" target="uavgOarLLKWaWZCZ6UA3-8" source="uavgOarLLKWaWZCZ6UA3-2">
          <mxGeometry relative="1" as="geometry">
            <mxPoint x="640" y="170" as="sourcePoint" />
          </mxGeometry>
        </mxCell>
        <mxCell id="uavgOarLLKWaWZCZ6UA3-15" value="" style="edgeStyle=orthogonalEdgeStyle;rounded=0;orthogonalLoop=1;jettySize=auto;html=1;" edge="1" parent="1" source="uavgOarLLKWaWZCZ6UA3-8" target="uavgOarLLKWaWZCZ6UA3-13">
          <mxGeometry relative="1" as="geometry" />
        </mxCell>
        <mxCell id="uavgOarLLKWaWZCZ6UA3-8" value="Compute Eligible" style="rounded=0;whiteSpace=wrap;html=1;" vertex="1" parent="1">
          <mxGeometry x="500" y="270" width="120" height="60" as="geometry" />
        </mxCell>
        <mxCell id="uavgOarLLKWaWZCZ6UA3-18" value="" style="edgeStyle=orthogonalEdgeStyle;rounded=0;orthogonalLoop=1;jettySize=auto;html=1;" edge="1" parent="1" source="uavgOarLLKWaWZCZ6UA3-9">
          <mxGeometry relative="1" as="geometry">
            <mxPoint x="270" y="450" as="targetPoint" />
          </mxGeometry>
        </mxCell>
        <mxCell id="uavgOarLLKWaWZCZ6UA3-9" value="The system will compute the inputed data by user and generate the remuneration employees" style="rounded=0;whiteSpace=wrap;html=1;" vertex="1" parent="1">
          <mxGeometry x="170" y="360" width="200" height="60" as="geometry" />
        </mxCell>
        <mxCell id="uavgOarLLKWaWZCZ6UA3-21" value="" style="edgeStyle=orthogonalEdgeStyle;rounded=0;orthogonalLoop=1;jettySize=auto;html=1;" edge="1" parent="1" source="uavgOarLLKWaWZCZ6UA3-13" target="uavgOarLLKWaWZCZ6UA3-22">
          <mxGeometry relative="1" as="geometry">
            <mxPoint x="560" y="490" as="targetPoint" />
          </mxGeometry>
        </mxCell>
        <mxCell id="uavgOarLLKWaWZCZ6UA3-13" value="The system will compute all the components automatically. If all the&amp;nbsp;supporting components are complete" style="rounded=0;whiteSpace=wrap;html=1;" vertex="1" parent="1">
          <mxGeometry x="460" y="360" width="200" height="60" as="geometry" />
        </mxCell>
        <mxCell id="uavgOarLLKWaWZCZ6UA3-24" value="" style="edgeStyle=orthogonalEdgeStyle;rounded=0;orthogonalLoop=1;jettySize=auto;html=1;" edge="1" parent="1" source="uavgOarLLKWaWZCZ6UA3-19" target="uavgOarLLKWaWZCZ6UA3-23">
          <mxGeometry relative="1" as="geometry" />
        </mxCell>
        <mxCell id="uavgOarLLKWaWZCZ6UA3-19" value="Attribute type = &quot;SAP&quot;" style="rhombus;whiteSpace=wrap;html=1;" vertex="1" parent="1">
          <mxGeometry x="192.5" y="450" width="155" height="80" as="geometry" />
        </mxCell>
        <mxCell id="uavgOarLLKWaWZCZ6UA3-27" value="" style="edgeStyle=orthogonalEdgeStyle;rounded=0;orthogonalLoop=1;jettySize=auto;html=1;fontFamily=Helvetica;" edge="1" parent="1" source="uavgOarLLKWaWZCZ6UA3-22" target="uavgOarLLKWaWZCZ6UA3-26">
          <mxGeometry relative="1" as="geometry" />
        </mxCell>
        <mxCell id="uavgOarLLKWaWZCZ6UA3-22" value="Attribute type = &quot;Calc&quot;" style="rhombus;whiteSpace=wrap;html=1;" vertex="1" parent="1">
          <mxGeometry x="482.5" y="450" width="155" height="80" as="geometry" />
        </mxCell>
        <mxCell id="uavgOarLLKWaWZCZ6UA3-23" value="&lt;div style=&quot;background-color: rgb(255, 255, 254); line-height: 16px;&quot;&gt;&lt;b style=&quot;&quot;&gt;Process Data from SAP&lt;/b&gt;&lt;/div&gt;" style="whiteSpace=wrap;html=1;align=left;" vertex="1" parent="1">
          <mxGeometry x="197.5" y="560" width="145" height="40" as="geometry" />
        </mxCell>
        <mxCell id="uavgOarLLKWaWZCZ6UA3-25" value="End" style="ellipse;whiteSpace=wrap;html=1;" vertex="1" parent="1">
          <mxGeometry x="362.5" y="770" width="120" height="40" as="geometry" />
        </mxCell>
        <mxCell id="uavgOarLLKWaWZCZ6UA3-26" value="&lt;div style=&quot;background-color: rgb(255, 255, 254); line-height: 16px;&quot;&gt;&lt;b&gt;Process the Data automatically&lt;/b&gt;&lt;/div&gt;" style="whiteSpace=wrap;html=1;align=left;" vertex="1" parent="1">
          <mxGeometry x="470" y="560" width="180" height="40" as="geometry" />
        </mxCell>
      </root>
    </mxGraphModel>
  </diagram>
</mxfile>
